<svg width="40" height="40" viewBox="0 0 40 40" fill="none" xmlns="http://www.w3.org/2000/svg">
<path d="M17.5 9.375C17.5 8.88055 17.6466 8.3972 17.9213 7.98608C18.196 7.57495 18.5865 7.25452 19.0433 7.0653C19.5001 6.87608 20.0028 6.82657 20.4877 6.92304C20.9727 7.0195 21.4181 7.2576 21.7678 7.60723C22.1174 7.95687 22.3555 8.40232 22.452 8.88728C22.5484 9.37223 22.4989 9.87489 22.3097 10.3317C22.1205 10.7885 21.8001 11.179 21.3889 11.4537C20.9778 11.7284 20.4945 11.875 20 11.875C19.337 11.875 18.7011 11.6116 18.2322 11.1428C17.7634 10.6739 17.5 10.038 17.5 9.375ZM20 17.5C19.5055 17.5 19.0222 17.6466 18.6111 17.9213C18.2 18.196 17.8795 18.5865 17.6903 19.0433C17.5011 19.5001 17.4516 20.0028 17.548 20.4877C17.6445 20.9727 17.8826 21.4181 18.2322 21.7678C18.5819 22.1174 19.0273 22.3555 19.5123 22.452C19.9972 22.5484 20.4999 22.4989 20.9567 22.3097C21.4135 22.1205 21.804 21.8001 22.0787 21.3889C22.3534 20.9778 22.5 20.4945 22.5 20C22.5 19.337 22.2366 18.7011 21.7678 18.2322C21.2989 17.7634 20.663 17.5 20 17.5ZM20 28.125C19.5055 28.125 19.0222 28.2716 18.6111 28.5463C18.2 28.821 17.8795 29.2115 17.6903 29.6683C17.5011 30.1251 17.4516 30.6278 17.548 31.1127C17.6445 31.5977 17.8826 32.0431 18.2322 32.3928C18.5819 32.7424 19.0273 32.9805 19.5123 33.077C19.9972 33.1734 20.4999 33.1239 20.9567 32.9347C21.4135 32.7455 21.804 32.4251 22.0787 32.0139C22.3534 31.6028 22.5 31.1195 22.5 30.625C22.5 29.962 22.2366 29.3261 21.7678 28.8572C21.2989 28.3884 20.663 28.125 20 28.125Z" fill="white"/>
</svg>
