<svg width="50" height="50" viewBox="0 0 50 50" fill="none" xmlns="http://www.w3.org/2000/svg">
<path d="M47.001 22.4092L28.5566 11.374C28.1003 11.0964 27.5779 10.9464 27.0438 10.9397C26.5097 10.933 25.9836 11.0698 25.5205 11.3359C25.018 11.6286 24.6019 12.0489 24.3144 12.5544C24.027 13.0599 23.8784 13.6324 23.8838 14.2139V21.9336L6.23535 11.3711C5.77906 11.0935 5.25657 10.9435 4.72249 10.9368C4.18841 10.9301 3.66233 11.0669 3.19922 11.333C2.69672 11.6256 2.28061 12.046 1.99314 12.5515C1.70568 13.0569 1.5571 13.6295 1.5625 14.2109V35.793C1.55693 36.3746 1.70542 36.9473 1.9929 37.453C2.28037 37.9586 2.69657 38.3792 3.19922 38.6719C3.66233 38.938 4.18841 39.0748 4.72249 39.0681C5.25657 39.0614 5.77906 38.9114 6.23535 38.6338L23.8838 28.0664V35.7891C23.8775 36.3714 24.0257 36.9449 24.3132 37.4513C24.6007 37.9577 25.0173 38.3789 25.5205 38.6719C25.9836 38.938 26.5097 39.0748 27.0438 39.0681C27.5779 39.0614 28.1003 38.9114 28.5566 38.6338L47.001 27.5986C47.4395 27.324 47.8009 26.9424 48.0515 26.4897C48.3021 26.0371 48.4336 25.5281 48.4336 25.0107C48.4336 24.4933 48.3021 23.9844 48.0515 23.5318C47.8009 23.0791 47.4395 22.6975 47.001 22.4229V22.4092Z" fill="#FEA5B0"/>
</svg>
