<svg width="40" height="40" viewBox="0 0 40 40" fill="none" xmlns="http://www.w3.org/2000/svg">
<path fill-rule="evenodd" clip-rule="evenodd" d="M36.6667 15C36.6667 15.442 36.4911 15.8659 36.1785 16.1785C35.8659 16.4911 35.442 16.6667 35 16.6667C34.558 16.6667 34.134 16.4911 33.8215 16.1785C33.5089 15.8659 33.3333 15.442 33.3333 15V9.36333L32.4117 9.82333C32.2152 9.92927 31.9995 9.99467 31.7772 10.0157C31.555 10.0366 31.3309 10.0128 31.118 9.94546C30.9052 9.87815 30.7081 9.76879 30.5384 9.62385C30.3686 9.47892 30.2297 9.30136 30.1299 9.10172C30.0301 8.90208 29.9714 8.68442 29.9573 8.46166C29.9432 8.2389 29.9739 8.01558 30.0478 7.80495C30.1216 7.59431 30.237 7.40065 30.3872 7.23547C30.5373 7.07028 30.719 6.93693 30.9217 6.84333L34.255 5.17666C34.509 5.04972 34.7913 4.9898 35.075 5.00257C35.3587 5.01535 35.6344 5.10041 35.876 5.24967C36.1176 5.39894 36.317 5.60746 36.4554 5.85545C36.5938 6.10344 36.6665 6.38268 36.6667 6.66666V15ZM9.99999 31.6667C9.99992 31.9962 9.90214 32.3184 9.719 32.5924C9.53586 32.8664 9.27559 33.08 8.97109 33.2061C8.66659 33.3322 8.33153 33.3652 8.00828 33.301C7.68502 33.2367 7.38808 33.078 7.155 32.845L3.82166 29.5117C3.50921 29.1991 3.33368 28.7753 3.33368 28.3333C3.33368 27.8914 3.50921 27.4675 3.82166 27.155L7.155 23.8217C7.38808 23.5886 7.68502 23.43 8.00828 23.3657C8.33153 23.3014 8.66659 23.3344 8.97109 23.4605C9.27559 23.5866 9.53586 23.8002 9.719 24.0742C9.90214 24.3482 9.99992 24.6704 9.99999 25V26.6667H28.3333C29.6594 26.6667 30.9312 26.1399 31.8689 25.2022C32.8065 24.2645 33.3333 22.9927 33.3333 21.6667C33.3333 21.2246 33.5089 20.8007 33.8215 20.4882C34.134 20.1756 34.558 20 35 20C35.442 20 35.8659 20.1756 36.1785 20.4882C36.4911 20.8007 36.6667 21.2246 36.6667 21.6667C36.6667 23.8762 35.7891 25.9953 34.2271 27.558C32.665 29.1207 30.5462 29.9991 28.3367 30H9.99999V31.6667ZM26.6667 11.6667C26.6667 11.2246 26.4911 10.8007 26.1785 10.4882C25.8659 10.1756 25.442 10 25 10H11.6667C9.45652 10 7.33691 10.878 5.77411 12.4408C4.2113 14.0036 3.33333 16.1232 3.33333 18.3333C3.33333 18.7754 3.50892 19.1993 3.82148 19.5118C4.13404 19.8244 4.55797 20 4.99999 20C5.44202 20 5.86595 19.8244 6.17851 19.5118C6.49107 19.1993 6.66666 18.7754 6.66666 18.3333C6.66666 17.0072 7.19345 15.7355 8.13113 14.7978C9.06881 13.8601 10.3406 13.3333 11.6667 13.3333H25C25.442 13.3333 25.8659 13.1577 26.1785 12.8452C26.4911 12.5326 26.6667 12.1087 26.6667 11.6667Z" fill="white"/>
</svg>
