<svg width="40" height="40" viewBox="0 0 40 40" fill="none" xmlns="http://www.w3.org/2000/svg">
<path d="M30 33.3333L35 28.3333M35 28.3333L30 23.3333M35 28.3333H28.3333C26.1232 28.3333 24.0036 27.4554 22.4408 25.8926C20.878 24.3298 20 22.2101 20 20C20 18.9057 19.7845 17.822 19.3657 16.811C18.9469 15.7999 18.333 14.8813 17.5592 14.1074C16.7854 13.3336 15.8667 12.7198 14.8557 12.301C13.8446 11.8822 12.761 11.6667 11.6667 11.6667H5M30 6.66667L35 11.6667M35 11.6667L30 16.6667M35 11.6667H28.3333C26.5298 11.664 24.7746 12.2491 23.3333 13.3333M5 28.3333H11.6667C13.4702 28.336 15.2254 27.7509 16.6667 26.6667" stroke="white" stroke-width="2" stroke-linecap="round" stroke-linejoin="round"/>
</svg>
