<svg width="50" height="50" viewBox="0 0 50 50" fill="none" xmlns="http://www.w3.org/2000/svg">
<path d="M2.99902 22.4092L21.4434 11.374C21.8997 11.0964 22.4221 10.9464 22.9562 10.9397C23.4903 10.933 24.0164 11.0698 24.4795 11.3359C24.982 11.6286 25.3981 12.0489 25.6856 12.5544C25.973 13.0599 26.1216 13.6324 26.1162 14.2139V21.9336L43.7646 11.3711C44.2209 11.0935 44.7434 10.9435 45.2775 10.9368C45.8116 10.9301 46.3377 11.0669 46.8008 11.333C47.3033 11.6256 47.7194 12.046 48.0069 12.5515C48.2943 13.0569 48.4429 13.6295 48.4375 14.2109V35.793C48.4432 36.3746 48.2947 36.9474 48.0072 37.4531C47.7197 37.9587 47.3035 38.3793 46.8008 38.6719C46.3377 38.938 45.8116 39.0748 45.2775 39.0681C44.7434 39.0614 44.2209 38.9114 43.7646 38.6338L26.1162 28.0664V35.7891C26.1226 36.3714 25.9745 36.945 25.6869 37.4514C25.3994 37.9578 24.9828 38.3789 24.4795 38.6719C24.0164 38.938 23.4903 39.0748 22.9562 39.0681C22.4221 39.0614 21.8997 38.9114 21.4434 38.6338L2.99902 27.5986C2.56055 27.324 2.19905 26.9424 1.94847 26.4897C1.69788 26.0371 1.56641 25.5281 1.56641 25.0107C1.56641 24.4933 1.69788 23.9844 1.94847 23.5318C2.19905 23.0791 2.56055 22.6975 2.99902 22.4229V22.4092Z" fill="#FEA5B0"/>
</svg>
